<?xml version="1.0" encoding="UTF-8"?>
<svg version="1.1" viewBox="0 0 644.31 200.98" xml:space="preserve" xmlns="http://www.w3.org/2000/svg"><g transform="translate(-3.4609 -3.4102)"><path transform="scale(.99664 1.0034)" d="m117.19 3.3987v133.59h25.488v-133.59zm-55.93 17.27c-16.439 0-30.194 5.5626-41.264 16.688-11.015 11.07-16.52 24.796-16.52 41.179 0 16.328 5.5058 30.056 16.52 41.181 11.07 11.07 24.825 16.604 41.264 16.604h47.49v-25.405h-47.49c-14.336 0-24.187-6.5599-29.556-19.678h50.063l14.114-25.488h-64.177c5.4243-13.062 15.276-19.594 29.556-19.594h47.49v-25.488zm321.62 9.8807-25.488 7.4709v15.691h-13.534v23.746h13.534v29.307c0 20.147 10.904 30.22 32.712 30.22 3.2103 0 6.6413-0.22098 10.294-0.66377v-22.5c-1.9372 0.16608-3.7346 0.24916-5.3951 0.24916-3.0996 0-5.6464-0.27574-7.639-0.82924-2.9889-0.77488-4.4838-2.9338-4.4838-6.4762v-29.307h17.518v-23.746h-17.518zm-184.59 18.679c-13.395 0-24.271 4.2064-32.629 12.62-8.3578 8.3578-12.536 18.709-12.536 31.052 2.3247 29.059 18.016 43.587 47.074 43.587 16.107 0 28.45-5.6721 37.029-17.019l-20.422-11.376c-3.8745 4.1512-9.2994 6.227-16.273 6.227-9.3541 0-16.162-3.8456-20.424-11.539h60.275c0.71954-3.1549 1.0798-6.4491 1.0798-9.8807 0-12.509-4.0957-22.915-12.287-31.217s-18.487-12.454-30.885-12.454zm96.612 0c-12.896 0-23.635 4.2064-32.214 12.62-8.5238 8.3578-12.785 18.709-12.785 31.052 0 12.288 4.2613 22.638 12.785 31.052 8.5792 8.3578 19.317 12.536 32.214 12.536 16.66 0 29.473-7.1114 38.44-21.336l-22.251-12.37c-3.5424 6.1438-9.0482 9.215-16.52 9.215-12.786-1.3284-19.18-7.6938-19.18-19.096 1.7712-12.786 8.1651-19.179 19.18-19.179 7.4722 0 12.978 3.0732 16.52 9.217l22.251-12.538c-9.1327-14.114-21.946-21.171-38.44-21.171zm113.94 2.8225v84.271h25.488v-37.36c0-12.786 7.0027-19.179 21.006-19.179 1.4944 0 2.9894 0.11146 4.4838 0.33286v-28.064c-5.3689 0-10.489 1.3562-15.36 4.0683-4.8708 2.6568-8.2479 6.7537-10.13 12.289v-16.357zm106.15 0.0837c-12.509 0-23.135 4.2064-31.881 12.62-8.7452 8.3578-13.118 18.68-13.118 30.968 0 12.288 4.3731 22.638 13.118 31.052 8.7452 8.3578 19.372 12.536 31.881 12.536 12.454 0 23.053-4.1781 31.798-12.536 8.8006-8.4131 13.201-18.764 13.201-31.052 0-12.288-4.4-22.61-13.201-30.968-8.7452-8.4131-19.345-12.62-31.798-12.62zm53.439 0v84.851h25.488v-45.082c1.1624-11.347 6.4216-17.019 15.776-17.019h0.58008c9.4648 0 14.198 5.0092 14.198 15.027v47.074h25.488v-50.644c0-11.181-3.1536-19.679-9.4634-25.49-6.3099-5.8117-13.756-8.7167-22.335-8.7167-11.181 0-19.262 3.3489-24.244 10.046v-10.046zm-370.3 19.096c3.8191 0 7.3888 0.99539 10.71 2.988 3.3763 1.9926 5.8133 5.3415 7.3078 10.046h-36.531c2.6568-8.6899 8.8272-13.034 18.513-13.034z" fill="#fe5a00" stroke-width="11.894" style="paint-order:markers stroke fill"/></g><g transform="translate(-3.4609 -3.4102)"><path d="m124.96 204.39h-13.272v-56.537h42.088v12.46h-28.816v10.877h28.37v12.46h-28.37zm100.6 0h-14.286l-10.999-18.589h-9.2943v18.589h-13.312v-29.872h23.946q9.0102 0 9.0102-7.265 0-3.1252-1.9482-5.1951-1.9482-2.1105-4.708-2.1105h-26.3v-12.095h26.3q8.2797 0 14.084 5.6821 5.8445 5.6415 5.8445 13.718 0 10.39-10.674 16.356zm37.2 0h-13.312v-56.537h13.312zm75.352 0v-12.42h-23.216q-10.512 0-14.449-9.619h24.474l6.8997-12.46h-31.373q3.9775-9.5784 14.449-9.5784h23.216v-12.46h-23.216q-12.054 0-20.172 8.1579-8.0767 8.1173-8.0767 20.131 0 11.973 8.0767 20.131 8.1173 8.1173 20.172 8.1173zm69.548 0h-9.9437l-22.444-30.683v30.683h-13.272v-56.497h9.9843l22.404 30.683v-30.683h13.272zm47.144-12.42q13.678 0 15.423-15.829 0-14.53-15.423-15.829h-9.9843v31.658zm0 12.42h-23.256v-56.537h23.256q12.014 0 20.09 8.1579 8.1173 8.1173 8.1173 20.131 0 11.973-8.1173 20.131-8.0767 8.1173-20.09 8.1173zm70.076 0h-20.415v-12.135h20.415q7.5897 0 7.5897-4.4239 0-2.4758-2.6787-3.8963t-8.8885-3.0034q-6.4533-1.5423-11.445-5.1139-4.9922-3.6122-4.9922-11.405 0-7.8738 5.7633-12.217 5.7633-4.3428 12.988-4.3428h22.038v12.095h-22.038q-5.9662 0-5.9662 4.1398 0 1.867 1.8264 3.3687 1.867 1.5017 8.1985 3.3687 6.6968 1.6235 12.338 4.9516 5.6415 3.2875 5.6415 11.892 0 15.585-20.374 16.722z" fill="#fff" stroke-width="5.8141" style="paint-order:markers stroke fill" aria-label="FRIENDS"/></g><g transform="matrix(.80089 0 0 .80089 457.9 42.534)"><path d="m51.395 39.503c0.9779 0.1784 1.9154-0.4698 2.0938-1.4478 0.1784-0.9779-0.4698-1.9154-1.4478-2.0938zm-22.78 4.0723 1.5595 0.899zm0.324 17.361c0.4939 0.8627 1.5936 1.1618 2.4564 0.6679s1.1618-1.5936 0.6679-2.4564zm8.7542 5.8099c-0.6685-0.7357-1.8069-0.7903-2.5427-0.1218s-0.7903 1.8069-0.1218 2.5427zm16.055 14.956-0.9011 1.5583zm43.172 7.8136c0.821-0.5606 1.032-1.6806 0.4713-2.5015-0.5606-0.821-1.6806-1.032-2.5015-0.4713zm-44.879-53.554c-5.5702-1.0161-10.757-1.0646-15.068-0.0236-4.319 1.043-7.8897 3.22-9.9179 6.7386l3.1189 1.7979c1.3945-2.4192 3.97-4.1498 7.644-5.037 3.6821-0.8892 8.3359-0.8903 13.577 0.0657zm-24.986 6.715c-3.0129 5.2267-1.7778 11.864 1.8834 18.26l3.1243-1.7885c-3.4057-5.9496-3.9548-11.089-1.8888-14.673zm7.9731 26.49c4.6095 5.0734 10.687 9.9689 17.819 14.093l1.8021-3.1165c-6.8418-3.9564-12.62-8.6247-16.956-13.398zm17.819 14.093c8.4962 4.9129 17.199 7.9848 24.887 9.1011 7.6239 1.1069 14.539 0.3273 19.186-2.8458l-2.0302-2.9728c-3.5649 2.4345-9.4002 3.3068-16.638 2.256-7.1731-1.0415-15.443-3.937-23.602-8.655zm52.511 1.648c0-3.474-2.813-6.295-6.288-6.295v3.6c1.482 0 2.688 1.2039 2.688 2.695zm-6.288-6.295c-3.4754 0-6.2879 2.821-6.2879 6.295h3.6c0-1.4911 1.2061-2.695 2.6879-2.695zm-6.2879 6.295c0 3.474 2.8125 6.295 6.2879 6.295v-3.6c-1.4818 0-2.6879-1.2039-2.6879-2.695zm6.2879 6.295c3.475 0 6.288-2.821 6.288-6.295h-3.6c0 1.4911-1.206 2.695-2.688 2.695z" fill="#fff"/><path d="m91.487 65.382c-0.6417 0.7592-0.5464 1.8949 0.2129 2.5366 0.7592 0.6417 1.8949 0.5464 2.5366-0.2128zm7.8296-21.747-1.5595 0.899zm-14.81-8.3942c-0.994-0.013-1.8103 0.7824-1.8232 1.7764-0.013 0.994 0.7823 1.8103 1.7764 1.8233zm-9.5663 4.6389c0.972-0.2085 1.5908-1.1656 1.3823-2.1376-0.2086-0.9719-1.1657-1.5908-2.1376-1.3822zm-21.157 6.4927 0.9011 1.5582zm-28.234 34.532c0.1441 0.9836 1.0583 1.6641 2.042 1.52 0.9836-0.1441 1.6641-1.0583 1.52-2.0419zm68.688-13.199c3.647-4.3151 6.2682-8.7788 7.5152-13.028 1.249-4.2567 1.148-8.4308-0.876-11.942l-3.1186 1.7979c1.392 2.4147 1.6029 5.5075 0.54 9.13-1.0651 3.6301-3.379 7.6579-6.8101 11.718zm6.6392-24.969c-2.9641-5.1427-9.1678-7.4015-16.369-7.4953l-0.0468 3.5997c6.6726 0.0869 11.266 2.1697 13.297 5.6935zm-26.691-6.3762c-6.7492 1.4483-14.098 4.2877-21.303 8.4543l1.8021 3.1164c6.9125-3.9972 13.91-6.6891 20.256-8.0509zm-21.303 8.4543c-8.746 5.0574-15.916 11.281-20.734 17.578-4.7717 6.2373-7.4343 12.819-6.6 18.512l3.562-0.5219c-0.6272-4.2802 1.3636-9.8766 5.8973-15.803 4.4876-5.8659 11.276-11.791 19.676-16.649z" fill="#fff"/><path d="m49.082 87.23c-0.3347-0.9361-1.3649-1.4236-2.3009-1.0889-0.9361 0.3347-1.4236 1.3649-1.0889 2.301zm29.481 9.1961c0.5115-0.8524 0.2353-1.9581-0.6171-2.4697-0.8523-0.5116-1.958-0.2354-2.4696 0.617zm1.0068-11.246c-0.2965 0.9489 0.2324 1.9584 1.1813 2.2549 0.9488 0.2964 1.9584-0.2325 2.2548-1.1813zm4.8129-21.112h-1.8zm-15.227-41.537c-0.9083-0.404-1.9722 0.0049-2.3761 0.9132-0.404 0.9084 0.0049 1.9722 0.9132 2.3761zm-23.463 65.912c1.9067 5.3325 4.4569 9.8489 7.5105 13.063 3.0591 3.219 6.7247 5.226 10.78 5.226v-3.6c-2.7851 0-5.567-1.366-8.1704-4.1061-2.6089-2.7459-4.9363-6.7772-6.7306-11.795zm18.291 18.289c5.8859 0 10.909-4.189 14.58-10.305l-3.0867-1.8527c-3.3987 5.6621-7.4646 8.5581-11.493 8.5581zm19.023-20.478c2.0205-6.4667 3.1768-14.07 3.1768-22.186h-3.6c0 7.7863-1.1109 15.025-3.0129 21.112zm3.1768-22.186c0-9.9529-1.7393-19.145-4.6871-26.417-2.9213-7.2066-7.1525-12.813-12.34-15.12l-1.4629 3.2893c3.9433 1.7537 7.6915 6.337 10.467 13.183 2.7488 6.781 4.4234 15.504 4.4234 25.065z" fill="#fff"/><path d="m103.56 84.908c0-2.4825-2.009-4.495-4.488-4.495-2.4786 0-4.4879 2.0125-4.4879 4.495s2.0093 4.495 4.4879 4.495c2.479 0 4.488-2.0125 4.488-4.495z" clip-rule="evenodd" fill="none" fill-rule="evenodd" stroke="#fff" stroke-linecap="round" stroke-width="3.6"/><path d="m28.814 89.403c2.4786 0 4.488-2.0125 4.488-4.495s-2.0094-4.495-4.488-4.495-4.4879 2.0125-4.4879 4.495 2.0093 4.495 4.4879 4.495z" clip-rule="evenodd" fill="none" fill-rule="evenodd" stroke="#fff" stroke-linecap="round" stroke-width="3.6"/><ellipse cx="63.984" cy="23.204" rx="4.4879" ry="4.495" fill="none" stroke="#fff" stroke-linecap="round" stroke-width="3.6"/><path d="m64.85 68.086c-2.216 0.4795-4.3991-0.931-4.8788-3.1504-0.4779-2.2194 0.9294-4.406 3.1454-4.8864 2.2159-0.4796 4.399 0.9309 4.8787 3.1503 0.4788 2.2194-0.9294 4.406-3.1453 4.8865z" clip-rule="evenodd" fill="#fff" fill-rule="evenodd"/></g></svg>
